<mxfile host="app.diagrams.net" modified="2021-12-11T09:32:01.431Z" agent="5.0 (Macintosh; Intel Mac OS X 10_15_7) AppleWebKit/537.36 (KHTML, like Gecko) Chrome/96.0.4664.55 Safari/537.36" etag="9l5wNRgWiz6w2C1rxG91" version="15.8.6" type="github">
  <diagram id="L4HA4OOnUadE9KUrvb5v" name="Page-1">
    <mxGraphModel dx="946" dy="452" grid="1" gridSize="10" guides="1" tooltips="1" connect="1" arrows="1" fold="1" page="1" pageScale="1" pageWidth="827" pageHeight="1169" math="0" shadow="0">
      <root>
        <mxCell id="0" />
        <mxCell id="1" parent="0" />
        <mxCell id="DUKJqcFnnqFQV_TgB0XZ-1" value="" style="rounded=0;whiteSpace=wrap;html=1;dashed=1;" vertex="1" parent="1">
          <mxGeometry x="170" y="112.5" width="250" height="235" as="geometry" />
        </mxCell>
        <mxCell id="DUKJqcFnnqFQV_TgB0XZ-2" value="" style="rounded=0;whiteSpace=wrap;html=1;dashed=1;" vertex="1" parent="1">
          <mxGeometry x="560" y="110" width="230" height="240" as="geometry" />
        </mxCell>
        <mxCell id="DUKJqcFnnqFQV_TgB0XZ-5" value="后端" style="text;html=1;align=center;verticalAlign=middle;resizable=0;points=[];autosize=1;strokeColor=none;fillColor=none;" vertex="1" parent="1">
          <mxGeometry x="170" y="125" width="40" height="20" as="geometry" />
        </mxCell>
        <mxCell id="DUKJqcFnnqFQV_TgB0XZ-6" value="前端" style="text;html=1;align=center;verticalAlign=middle;resizable=0;points=[];autosize=1;strokeColor=none;fillColor=none;" vertex="1" parent="1">
          <mxGeometry x="560" y="120" width="40" height="20" as="geometry" />
        </mxCell>
        <mxCell id="DUKJqcFnnqFQV_TgB0XZ-15" value="" style="edgeStyle=orthogonalEdgeStyle;rounded=0;orthogonalLoop=1;jettySize=auto;html=1;" edge="1" parent="1" source="DUKJqcFnnqFQV_TgB0XZ-7" target="DUKJqcFnnqFQV_TgB0XZ-9">
          <mxGeometry relative="1" as="geometry" />
        </mxCell>
        <mxCell id="DUKJqcFnnqFQV_TgB0XZ-7" value="flask" style="rounded=0;whiteSpace=wrap;html=1;verticalAlign=top;" vertex="1" parent="1">
          <mxGeometry x="190" y="161.25" width="200" height="80" as="geometry" />
        </mxCell>
        <mxCell id="DUKJqcFnnqFQV_TgB0XZ-8" value="sklearn" style="rounded=0;whiteSpace=wrap;html=1;" vertex="1" parent="1">
          <mxGeometry x="200" y="197.5" width="80" height="27.5" as="geometry" />
        </mxCell>
        <mxCell id="DUKJqcFnnqFQV_TgB0XZ-9" value="redis" style="rounded=0;whiteSpace=wrap;html=1;" vertex="1" parent="1">
          <mxGeometry x="245" y="277.5" width="90" height="40" as="geometry" />
        </mxCell>
        <mxCell id="DUKJqcFnnqFQV_TgB0XZ-10" value="" style="shape=flexArrow;endArrow=classic;html=1;rounded=0;width=36;endSize=10.67;endWidth=32;" edge="1" parent="1">
          <mxGeometry width="50" height="50" relative="1" as="geometry">
            <mxPoint x="540" y="234.5" as="sourcePoint" />
            <mxPoint x="440" y="234.5" as="targetPoint" />
          </mxGeometry>
        </mxCell>
        <mxCell id="DUKJqcFnnqFQV_TgB0XZ-11" value="接口调用" style="edgeLabel;html=1;align=center;verticalAlign=middle;resizable=0;points=[];" vertex="1" connectable="0" parent="DUKJqcFnnqFQV_TgB0XZ-10">
          <mxGeometry x="-0.26" y="2" relative="1" as="geometry">
            <mxPoint as="offset" />
          </mxGeometry>
        </mxCell>
        <mxCell id="DUKJqcFnnqFQV_TgB0XZ-12" value="vue-cli" style="rounded=0;whiteSpace=wrap;html=1;verticalAlign=top;" vertex="1" parent="1">
          <mxGeometry x="620" y="160" width="115" height="150" as="geometry" />
        </mxCell>
        <mxCell id="DUKJqcFnnqFQV_TgB0XZ-13" value="echarts" style="rounded=0;whiteSpace=wrap;html=1;" vertex="1" parent="1">
          <mxGeometry x="637.5" y="210" width="80" height="30" as="geometry" />
        </mxCell>
        <mxCell id="DUKJqcFnnqFQV_TgB0XZ-14" value="element-ui" style="rounded=0;whiteSpace=wrap;html=1;" vertex="1" parent="1">
          <mxGeometry x="637.5" y="250" width="80" height="30" as="geometry" />
        </mxCell>
        <mxCell id="DUKJqcFnnqFQV_TgB0XZ-16" value="..." style="rounded=0;whiteSpace=wrap;html=1;" vertex="1" parent="1">
          <mxGeometry x="300" y="197.5" width="80" height="27.5" as="geometry" />
        </mxCell>
      </root>
    </mxGraphModel>
  </diagram>
</mxfile>
